<?xml version="1.0" encoding="UTF-8" standalone="no"?>
<!-- Generator: Adobe Illustrator 22.0.1, SVG Export Plug-In . SVG Version: 6.00 Build 0)  -->

<svg
   version="1.1"
   id="DLS_x5F_PhilipsShield"
   x="0px"
   y="0px"
   viewBox="0 0 48 48"
   style="enable-background:new 0 0 48 48;"
   xml:space="preserve"
   fill="#ffffff"
   sodipodi:docname="DLS_PhilipsShield_48_v2.svg"
   inkscape:version="1.2.2 (732a01da63, 2022-12-09)"
   inkscape:export-filename="DLS_PhilipsShield_48_v2.png"
   inkscape:export-xdpi="256"
   inkscape:export-ydpi="256"
   xmlns:inkscape="http://www.inkscape.org/namespaces/inkscape"
   xmlns:sodipodi="http://sodipodi.sourceforge.net/DTD/sodipodi-0.dtd"
   xmlns="http://www.w3.org/2000/svg"
   xmlns:svg="http://www.w3.org/2000/svg"
   xmlns:rdf="http://www.w3.org/1999/02/22-rdf-syntax-ns#"
   xmlns:cc="http://creativecommons.org/ns#"
   xmlns:dc="http://purl.org/dc/elements/1.1/"><defs
   id="defs3737"><filter
     inkscape:collect="always"
     style="color-interpolation-filters:sRGB"
     id="filter4567"
     x="-0.32835416"
     width="1.6567083"
     y="-0.26387534"
     height="1.5277507"><feGaussianBlur
       inkscape:collect="always"
       stdDeviation="4.7802022"
       id="feGaussianBlur4569" /></filter></defs><sodipodi:namedview
   pagecolor="#ffffff"
   bordercolor="#666666"
   borderopacity="1"
   objecttolerance="10"
   gridtolerance="10"
   guidetolerance="10"
   inkscape:pageopacity="0"
   inkscape:pageshadow="2"
   inkscape:window-width="2560"
   inkscape:window-height="1377"
   id="namedview3735"
   showgrid="false"
   inkscape:zoom="17.041667"
   inkscape:cx="9.9168702"
   inkscape:cy="23.94132"
   inkscape:window-x="-8"
   inkscape:window-y="-8"
   inkscape:window-maximized="1"
   inkscape:current-layer="layer2"
   inkscape:pagecheckerboard="true"
   inkscape:showpageshadow="2"
   inkscape:deskcolor="#d1d1d1"><inkscape:grid
     type="xygrid"
     id="grid4549" /></sodipodi:namedview>
<style
   id="style3726">
    path { fill:#296FAB }
</style>
<g
   inkscape:groupmode="layer"
   id="layer2"
   inkscape:label="Layer 2"
   style="display:inline"><path
     style="fill:#ffffff;stroke:none;stroke-width:1px;stroke-linecap:butt;stroke-linejoin:miter;stroke-opacity:1"
     d="m 8.13,2.87 c 12.130426,-1.5439427 23.808322,-0.8276355 34.54,0 l -0.0099,26.367164 c 0,0 -2.279436,13.80344 -17.369193,16.591687 C 12.285302,43.33338 10.088864,36.421018 8.2151589,29.926651 Z"
     id="path4573"
     inkscape:connector-curvature="0"
     sodipodi:nodetypes="cccccc" /></g><g
   inkscape:groupmode="layer"
   id="layer1"
   inkscape:label="Layer 1"
   style="display:inline"
   sodipodi:insensitive="true"><path
     style="fill:#ffffff;fill-opacity:1;stroke:none;stroke-width:1px;stroke-linecap:butt;stroke-linejoin:miter;stroke-opacity:1;filter:url(#filter4567)"
     d="M 41.27,2.95 41.25183,29.98533 C 41.115846,32.948722 41.097527,42.886029 25.643032,46.415648 11.740844,45.557419 7.3735015,37.444421 6.6894866,29.98533 2.7692044,15.48763 32.063048,2.5018797 41.27,2.95 Z"
     id="path3742"
     inkscape:connector-curvature="0"
     sodipodi:nodetypes="ccccc" /><path
     d="M 33.26,9.17 H 33 V 7 c 0.09,-0.01 0.18,-0.01 0.26,-0.01 0.79,0 1.16,0.37 1.16,1.03 0,0.69 -0.33,1.15 -1.16,1.15 z M 13.79,8.03 C 13.79,7.37 13.42,7 12.63,7 12.55,7 12.46,7 12.37,7.01 v 2.17 h 0.26 C 13.46,9.17 13.79,8.71 13.79,8.03 Z M 42.67,2.87 v 25.78 c 0,9.51 -7.75,17.27 -17.27,17.27 -9.68,0 -17.27,-7.76 -17.27,-17.28 V 2.87 c 2.25,-0.28 9.46,-0.95 17.27,-0.95 7.64,0 14.95,0.63 17.27,0.95 z m -11.36,8.5 h 1.6 v -1.25 h 0.57 c 1.49,0 2.44,-0.77 2.44,-2.11 0,-1.47 -1.01,-2 -2.66,-2 -0.64,0 -1.41,0.04 -1.95,0.11 z m -2.81,0 h 1.6 V 6.12 h -1.6 z m -3.71,0 h 2.9 l 0.24,-1.06 H 26.39 V 6.12 h -1.6 z m -2.79,0 h 1.6 V 6.12 H 22 Z m -0.27,2.78 c 0.06,0.53 0.24,1.99 0.33,2.29 0.11,0.37 0.35,0.53 0.6,0.6 0.37,0.1 2.48,0.34 2.48,0.34 v 0.15 c 0,0 -2.11,0.25 -2.48,0.35 -0.25,0.07 -0.49,0.23 -0.6,0.6 -0.08,0.29 -0.25,1.63 -0.32,2.21 1.25,0.17 2.59,0.32 2.59,0.32 v 0.27 c 0,0 -3.91,0.45 -4.59,0.64 -0.45,0.12 -0.89,0.41 -1.09,1.08 -0.18,0.62 -0.57,4.02 -0.63,4.53 2.76,-0.5 5.11,-1.93 6.88,-2.79 2.52,-1.22 4.82,-2.21 7.96,-2.21 2.73,0 5.14,0.88 6.91,1.96 -1.8,-6.24 -7.56,-10.81 -14.38,-10.81 -1.25,0.01 -2.48,0.17 -3.66,0.47 z m -3.08,5.15 c 0.19,0.68 0.63,0.96 1.09,1.08 0.26,0.07 0.98,0.18 1.79,0.29 -0.07,-0.6 -0.23,-1.9 -0.32,-2.18 -0.11,-0.37 -0.35,-0.53 -0.6,-0.6 -0.3,-0.08 -1.67,-0.25 -2.24,-0.32 0.11,0.77 0.21,1.47 0.28,1.73 z m 2.88,-5.1 c -1.2,0.32 -2.35,0.79 -3.41,1.38 0.06,0.5 0.14,1.15 0.22,1.77 0.55,-0.06 1.96,-0.23 2.27,-0.32 0.25,-0.07 0.49,-0.23 0.6,-0.6 0.08,-0.29 0.25,-1.67 0.32,-2.23 z m -5.6,-2.83 h 1.6 V 9.3 h 1.67 v 2.07 h 1.6 V 6.12 H 19.2 V 8.21 H 17.53 V 6.12 h -1.6 z m -3.31,9.51 c 1.21,-0.15 2.97,-0.38 3.41,-0.5 0.45,-0.12 0.89,-0.41 1.08,-1.08 0.12,-0.43 0.35,-2.2 0.5,-3.41 -2.04,1.24 -3.75,2.95 -4.99,4.99 z m -1.94,-9.51 h 1.6 v -1.25 h 0.57 c 1.49,0 2.44,-0.77 2.44,-2.11 0,-1.47 -1.01,-2 -2.66,-2 -0.64,0 -1.41,0.04 -1.96,0.11 v 5.25 z m -0.12,15.41 c 1.64,0.65 3.52,0.98 5.08,0.98 0.74,0 1.44,-0.06 2.1,-0.17 -0.06,-0.54 -0.45,-3.96 -0.63,-4.58 -0.19,-0.67 -0.63,-0.96 -1.08,-1.08 -0.47,-0.13 -2.51,-0.39 -3.71,-0.53 -0.91,1.63 -1.52,3.45 -1.76,5.38 z m 15.87,9.47 v -0.27 c 0,0 3.91,-0.45 4.59,-0.64 0.45,-0.12 0.89,-0.41 1.08,-1.08 0.18,-0.64 0.6,-4.23 0.64,-4.62 -2.68,0.5 -4.52,1.73 -6.83,2.91 -2.45,1.25 -4.84,2.15 -7.96,2.15 -2.75,0 -5.19,-0.89 -6.96,-1.99 1.77,6.29 7.55,10.9 14.41,10.9 2.63,0 5.09,-0.68 7.24,-1.86 C 32.5,40.57 32.24,38.44 32.1,37.96 31.91,37.29 31.47,37 31.02,36.87 30.34,36.7 26.43,36.25 26.43,36.25 Z m 11.8,0.13 c -1.21,0.15 -3.05,0.38 -3.5,0.51 -0.45,0.12 -0.89,0.41 -1.09,1.09 -0.13,0.44 -0.36,2.29 -0.51,3.5 2.09,-1.26 3.84,-3.01 5.1,-5.1 z m 2.04,-5.92 c -1.65,-0.66 -3.55,-1.01 -5.1,-1.01 -0.79,0 -1.5,0.06 -2.16,0.16 0.03,0.31 0.46,4.01 0.64,4.66 0.19,0.68 0.63,0.96 1.09,1.08 0.48,0.13 2.6,0.4 3.78,0.54 0.9,-1.65 1.51,-3.48 1.75,-5.43 z m 0.1,-1.88 c 0,-0.63 -0.04,-1.25 -0.12,-1.86 -1.89,-1.2 -4.52,-1.81 -6.72,-1.81 -3.34,0 -5.35,1.02 -7.56,2.12 -2.83,1.41 -5.54,3.1 -9.48,3.1 -2.4,0 -4.53,-0.64 -6.05,-1.46 0,0.01 0,-0.01 0,0 0,0.62 0.04,1.25 0.11,1.85 1.89,1.21 4.53,1.8 6.74,1.8 3.35,0 5.36,-1 7.56,-2.1 3.03,-1.51 5.55,-3.11 9.5,-3.09 2.39,0.01 4.5,0.64 6.02,1.45 z M 40.54,9.72 c 0,-1.76 -2.53,-1.43 -2.53,-2.26 0,-0.29 0.29,-0.42 0.75,-0.42 0.51,0 1.05,0.11 1.43,0.26 L 40.06,6.16 C 39.64,6.07 39.27,6.01 38.59,6.01 c -1.3,0 -2.18,0.51 -2.18,1.58 0,1.85 2.5,1.47 2.5,2.33 0,0.33 -0.24,0.51 -0.83,0.51 -0.53,0 -1.34,-0.18 -1.82,-0.42 l 0.18,1.21 c 0.48,0.18 1.14,0.26 1.67,0.26 1.33,0 2.43,-0.44 2.43,-1.76 z M 26.42,39.91 c 0,0 1.64,0.19 1.93,0.27 0.19,0.05 0.38,0.18 0.47,0.47 0.08,0.29 0.27,1.93 0.27,1.93 h 0.12 c 0,0 0.19,-1.64 0.27,-1.93 0.08,-0.29 0.27,-0.41 0.47,-0.47 0.29,-0.08 1.93,-0.27 1.93,-0.27 v -0.12 c 0,0 -1.64,-0.19 -1.93,-0.27 -0.19,-0.05 -0.38,-0.18 -0.47,-0.47 -0.08,-0.29 -0.27,-1.93 -0.27,-1.93 h -0.12 c 0,0 -0.19,1.64 -0.27,1.93 -0.08,0.29 -0.27,0.41 -0.47,0.47 -0.29,0.08 -1.93,0.27 -1.93,0.27 z"
     id="path3728"
     inkscape:connector-curvature="0"
     style="fill:#296fab" /></g>

	

 <title
   id="title3730">Philips Shield</title>
  <metadata
   id="metadata3732">
    <asset>Icon</asset>
    <description>  </description>
    <keywords>DLS, generic</keywords>
    <size>24</size>
  <rdf:RDF><cc:Work
     rdf:about=""><dc:format>image/svg+xml</dc:format><dc:type
       rdf:resource="http://purl.org/dc/dcmitype/StillImage" /><dc:title>Philips Shield</dc:title></cc:Work></rdf:RDF></metadata>

</svg>
