<?xml version="1.0" encoding="utf-8" ?>
<!-- Generator: Adobe Illustrator 22.0.1, SVG Export Plug-In . SVG Version: 6.00 Build 0)  -->
<svg version="1.1" id="DLS_x5F_PhilipsShield" xmlns="http://www.w3.org/2000/svg" xmlns:xlink="http://www.w3.org/1999/xlink" x="0px" y="0px" viewBox="0 0 48 48" style="enable-background:new 0 0 48 48;" xml:space="preserve" fill="#ffffff">
<style>
    svg  { background-color:#ffffff }
    path { fill:#296FAB }
</style>
<path d="M31.86,9.25h-0.26V7.08c0.09-0.01,0.18-0.01,0.26-0.01c0.79,0,1.16,0.37,1.16,1.03C33.02,8.79,32.69,9.25,31.86,9.25z
	 M12.39,8.11c0-0.66-0.37-1.03-1.16-1.03c-0.08,0-0.17,0-0.26,0.01v2.17h0.26C12.06,9.25,12.39,8.79,12.39,8.11z M41.27,2.95v25.78
	C41.27,38.24,33.52,46,24,46c-9.68,0-17.27-7.76-17.27-17.28V2.95C8.98,2.67,16.19,2,24,2C31.64,2,38.95,2.63,41.27,2.95z
	 M29.91,11.45h1.6V10.2h0.57c1.49,0,2.44-0.77,2.44-2.11c0-1.47-1.01-2-2.66-2c-0.64,0-1.41,0.04-1.95,0.11V11.45z M27.1,11.45h1.6
	V6.2h-1.6V11.45z M23.39,11.45h2.9l0.24-1.06h-1.54V6.2h-1.6V11.45z M20.6,11.45h1.6V6.2h-1.6V11.45z M20.33,14.23
	c0.06,0.53,0.24,1.99,0.33,2.29c0.11,0.37,0.35,0.53,0.6,0.6c0.37,0.1,2.48,0.34,2.48,0.34v0.15c0,0-2.11,0.25-2.48,0.35
	c-0.25,0.07-0.49,0.23-0.6,0.6c-0.08,0.29-0.25,1.63-0.32,2.21c1.25,0.17,2.59,0.32,2.59,0.32v0.27c0,0-3.91,0.45-4.59,0.64
	c-0.45,0.12-0.89,0.41-1.09,1.08c-0.18,0.62-0.57,4.02-0.63,4.53c2.76-0.5,5.11-1.93,6.88-2.79c2.52-1.22,4.82-2.21,7.96-2.21
	c2.73,0,5.14,0.88,6.91,1.96c-1.8-6.24-7.56-10.81-14.38-10.81C22.74,13.77,21.51,13.93,20.33,14.23z M17.25,19.38
	c0.19,0.68,0.63,0.96,1.09,1.08c0.26,0.07,0.98,0.18,1.79,0.29c-0.07-0.6-0.23-1.9-0.32-2.18c-0.11-0.37-0.35-0.53-0.6-0.6
	c-0.3-0.08-1.67-0.25-2.24-0.32C17.08,18.42,17.18,19.12,17.25,19.38z M20.13,14.28c-1.2,0.32-2.35,0.79-3.41,1.38
	c0.06,0.5,0.14,1.15,0.22,1.77c0.55-0.06,1.96-0.23,2.27-0.32c0.25-0.07,0.49-0.23,0.6-0.6C19.89,16.22,20.06,14.84,20.13,14.28z
	 M14.53,11.45h1.6V9.38h1.67v2.07h1.6V6.2h-1.6v2.09h-1.67V6.2h-1.6V11.45z M11.22,20.96c1.21-0.15,2.97-0.38,3.41-0.5
	c0.45-0.12,0.89-0.41,1.08-1.08c0.12-0.43,0.35-2.2,0.5-3.41C14.17,17.21,12.46,18.92,11.22,20.96z M9.28,11.45h1.6V10.2h0.57
	c1.49,0,2.44-0.77,2.44-2.11c0-1.47-1.01-2-2.66-2c-0.64,0-1.41,0.04-1.96,0.11V11.45z M9.16,26.86c1.64,0.65,3.52,0.98,5.08,0.98
	c0.74,0,1.44-0.06,2.1-0.17c-0.06-0.54-0.45-3.96-0.63-4.58c-0.19-0.67-0.63-0.96-1.08-1.08c-0.47-0.13-2.51-0.39-3.71-0.53
	C10.01,23.11,9.4,24.93,9.16,26.86z M25.03,36.33v-0.27c0,0,3.91-0.45,4.59-0.64c0.45-0.12,0.89-0.41,1.08-1.08
	c0.18-0.64,0.6-4.23,0.64-4.62c-2.68,0.5-4.52,1.73-6.83,2.91c-2.45,1.25-4.84,2.15-7.96,2.15c-2.75,0-5.19-0.89-6.96-1.99
	c1.77,6.29,7.55,10.9,14.41,10.9c2.63,0,5.09-0.68,7.24-1.86c-0.14-1.18-0.4-3.31-0.54-3.79c-0.19-0.67-0.63-0.96-1.08-1.09
	C28.94,36.78,25.03,36.33,25.03,36.33z M36.83,36.46c-1.21,0.15-3.05,0.38-3.5,0.51c-0.45,0.12-0.89,0.41-1.09,1.09
	c-0.13,0.44-0.36,2.29-0.51,3.5C33.82,40.3,35.57,38.55,36.83,36.46z M38.87,30.54c-1.65-0.66-3.55-1.01-5.1-1.01
	c-0.79,0-1.5,0.06-2.16,0.16c0.03,0.31,0.46,4.01,0.64,4.66c0.19,0.68,0.63,0.96,1.09,1.08c0.48,0.13,2.6,0.4,3.78,0.54
	C38.02,34.32,38.63,32.49,38.87,30.54z M38.97,28.66c0-0.63-0.04-1.25-0.12-1.86c-1.89-1.2-4.52-1.81-6.72-1.81
	c-3.34,0-5.35,1.02-7.56,2.12c-2.83,1.41-5.54,3.1-9.48,3.1c-2.4,0-4.53-0.64-6.05-1.46c0,0.01,0-0.01,0,0
	c0,0.62,0.04,1.25,0.11,1.85c1.89,1.21,4.53,1.8,6.74,1.8c3.35,0,5.36-1,7.56-2.1c3.03-1.51,5.55-3.11,9.5-3.09
	C35.34,27.22,37.45,27.85,38.97,28.66z M39.14,9.8c0-1.76-2.53-1.43-2.53-2.26c0-0.29,0.29-0.42,0.75-0.42
	c0.51,0,1.05,0.11,1.43,0.26l-0.13-1.14c-0.42-0.09-0.79-0.15-1.47-0.15c-1.3,0-2.18,0.51-2.18,1.58c0,1.85,2.5,1.47,2.5,2.33
	c0,0.33-0.24,0.51-0.83,0.51c-0.53,0-1.34-0.18-1.82-0.42l0.18,1.21c0.48,0.18,1.14,0.26,1.67,0.26
	C38.04,11.56,39.14,11.12,39.14,9.8z M25.02,39.99c0,0,1.64,0.19,1.93,0.27c0.19,0.05,0.38,0.18,0.47,0.47
	c0.08,0.29,0.27,1.93,0.27,1.93h0.12c0,0,0.19-1.64,0.27-1.93c0.08-0.29,0.27-0.41,0.47-0.47c0.29-0.08,1.93-0.27,1.93-0.27v-0.12
	c0,0-1.64-0.19-1.93-0.27c-0.19-0.05-0.38-0.18-0.47-0.47c-0.08-0.29-0.27-1.93-0.27-1.93h-0.12c0,0-0.19,1.64-0.27,1.93
	c-0.08,0.29-0.27,0.41-0.47,0.47c-0.29,0.08-1.93,0.27-1.93,0.27V39.99z"/>

	

 <title>Philips Shield</title>
  <metadata>
    <asset>Icon</asset>
    <description>  </description>
    <keywords>DLS, generic</keywords>
    <size>24</size>
  </metadata>

</svg>
