<svg id="Glyph" xmlns="http://www.w3.org/2000/svg" viewBox="0 0 512 512"><g id="Glyph-2" data-name="Glyph">
<style>
    svg  { background-color:##438BCC }
    path { fill:#296FAB }
</style>
<path d="M454.045,285.954c-7.958,5.077-23.684,16.23-37.024,25.7a4,4,0,0,0-1.454,4.73,44.769,44.769,0,0,1,3.01,11.828c4.2,32.652-38.695,52.019-40.523,52.828-16.526,7.73-47.684,7.286-61.608,5.379a6,6,0,0,1,1.563-11.9c14.957,1.689,39.523,2.264,55.182-4.453.361-.16,35.742-16.416,33.529-39.945-1.428-15.174-15.137-31.256-31.235-27.409-3.88.92-7.6,2.12-11.2,3.28-14.64,4.68-29.76,9.52-63.04-3.2-62.92-24.08-125.48,5.92-130.16,8.24l-26.88,11.36a17.785,17.785,0,0,0-20.32-4.72c-13.64,5.64-52.64,22-85.12,35.6a54.076,54.076,0,0,0-28.96,70.52l22.6,54.44c10.64,27.12,44.24,40.92,70.88,29.04l83.52-35.24a18.049,18.049,0,0,0,10.84-17.64l5.76-2.44a41.319,41.319,0,0,1,22.32-2.92c44.12,6.6,119.76-8.68,158.76-32.04a887.4,887.4,0,0,0,108.56-76.08C527.005,312.914,489.965,263.034,454.045,285.954Zm-271.92,175-17.24,7.28-54.76-131.84c7.84-3.24,14.24-5.92,18.36-7.64a5.942,5.942,0,0,1,7.84,3.28l49,121.2A5.932,5.932,0,0,1,182.125,460.954Z"/><path d="M407.236,157.994c42.625,0,75.53-20.272,74.769-47.129-1.046-36.932-40.159-47.621-78.711-43.09-31.061,3.651-59.065,33.738-72.284,50.207-7.84-31.23-32.636-107.65-87.161-115.929-48.564-7.374-97.8,17.091-97.844,66.039-.049,60.136,56.161,77.465,108.832,77.031,26.357-.217,51.433-3.631,67.168-6.106v51.206c-56.333,2.368-103.862,37.7-116.715,87.709a6.042,6.042,0,0,0,6.973,7.379c33.351-6.571,65.328-4.4,93.316,6.3,20.633,7.738,34.844,10.3,55.5,2.754,12.8-5.379,30.883-6.746,43.219,5.555a6,6,0,0,0,7.691.656c15.77-11.094,27.543-19.293,34.051-23.7a6,6,0,0,0,2.313-6.918c-15.848-46.094-61.362-77.522-114.348-79.752V141.347C348.041,147.367,377.069,157.994,407.236,157.994ZM347.5,117.166c10.337-3.745,22.514-7.172,32.51-7.172a6,6,0,0,1,0,12c-11.279,0-26.727,5.514-37.313,9.935-2.079-.835-3.934-1.616-5.519-2.306C339.662,126.373,343.192,121.985,347.5,117.166Zm-32.444,10.781c-19.249-17.987-39.885-34.8-56.222-38.07a6,6,0,0,1,2.352-11.766c17.384,3.476,36.89,18.155,56.211,35.678,1.508,5.368,2.644,9.942,3.414,13.268C319.02,127.338,317.084,127.639,315.051,127.947Z"/></g></svg>