<?xml version="1.0" encoding="UTF-8"?>
<svg width="77px" height="20px" viewBox="0 0 77 11" version="1.1" xmlns="http://www.w3.org/2000/svg" xmlns:xlink="http://www.w3.org/1999/xlink">
    <title>philips-wordmark 2</title>
    
    <g id="Page-1" stroke="none" stroke-width="1" >
        <g id="philips-wordmark-2">
        <style>
        svg  { fill:#ffffff }
        </style>
            <path d="M25.9129565,0.287143572 L21.8089045,0.287143572 L21.8089045,5.63081541 L17.5367684,5.63081541 L17.5367684,0.287143572 L13.4327164,0.287143572 L13.4327164,13.7338669 L17.5367684,13.7338669 L17.5367684,8.44622311 L21.8089045,8.44622311 L21.8089045,13.7338669 L25.9129565,13.7338669 L25.9129565,0.287143572 Z M40.1930965,11.0305153 L40.1930965,0.287143572 L36.0890445,0.287143572 L36.0890445,13.7338669 L43.5057529,13.7338669 L44.122061,11.0305153 L40.186093,11.0305153 L40.1930965,11.0305153 Z M33.0495248,0.287143572 L28.9454727,0.287143572 L28.9454727,13.7338669 L33.0495248,13.7338669 L33.0495248,0.287143572 Z M49.6898449,0.287143572 L45.5857929,0.287143572 L45.5857929,13.7338669 L49.6898449,13.7338669 L49.6898449,0.287143572 Z M69.9229615,3.71885943 C69.9229615,2.99049525 70.6513257,2.64732366 71.8349175,2.64732366 C73.1305653,2.64732366 74.5312656,2.92746373 75.4907454,3.31965983 L75.1545773,0.392196098 C74.0830415,0.168084042 73.1305653,0 71.3866933,0 C68.0670335,0 65.8189095,1.30965483 65.8189095,4.04802401 C65.8189095,8.77538769 72.2271136,7.81590795 72.2271136,10.008004 C72.2271136,10.8484242 71.6108054,11.3036518 70.0910455,11.3036518 C68.7393697,11.3036518 66.6593297,10.8554277 65.4267134,10.2321161 L65.8749375,13.3276638 C67.1145573,13.7758879 68.7953977,14 70.1470735,14 C73.5787894,14 76.3871936,12.8724362 76.3871936,9.49674837 C76.3871936,4.99349675 69.9229615,5.84092046 69.9229615,3.70485243 L69.9229615,3.71885943 Z M58.3461731,10.5262631 C62.170085,10.5262631 64.5862931,8.55827914 64.5862931,5.12656328 C64.5862931,1.35867934 62.002001,0.00700350175 57.7858929,0.00700350175 C56.154077,0.00700350175 54.186093,0.11905953 52.7853927,0.287143572 L52.7853927,13.7338669 L56.8894447,13.7338669 L56.8894447,10.5262631 L58.3531766,10.5262631 L58.3461731,10.5262631 Z M60.5382691,5.1825913 C60.5382691,6.92646323 59.6978489,8.11005503 57.5617809,8.11005503 L56.8894447,8.11005503 L56.8894447,2.54927464 C57.1275638,2.53526763 57.3516758,2.53526763 57.5617809,2.53526763 C59.5857929,2.53526763 60.5382691,3.49474737 60.5382691,5.17558779 L60.5382691,5.1825913 Z M5.56778389,10.5262631 C9.39169585,10.5262631 11.807904,8.55827914 11.807904,5.12656328 C11.8009005,1.35867934 9.2166083,0.00700350175 5.00050025,0.00700350175 C3.37568784,0.00700350175 1.40770385,0.11905953 0,0.287143572 L0,13.7338669 L4.10405203,13.7338669 L4.10405203,10.5262631 L5.56778389,10.5262631 Z M7.75987994,5.1825913 C7.75987994,6.92646323 6.91945973,8.11005503 4.7833917,8.11005503 L4.11105553,8.11005503 L4.11105553,2.54927464 C4.34917459,2.53526763 4.57328664,2.53526763 4.7833917,2.53526763 C6.8074037,2.53526763 7.75987994,3.49474737 7.75987994,5.17558779 L7.75987994,5.1825913 Z" id="Shape" fill="#000000" fill-rule="nonzero" style="fill: #050505;"/>
        </g>
    </g>
</svg>